<svg width="12" height="10" viewBox="0 0 12 10" fill="none" xmlns="http://www.w3.org/2000/svg">
<path fill-rule="evenodd" clip-rule="evenodd" d="M10.961 2.27176L11.9858 6.57245C12.0003 6.61678 12.0037 6.66404 11.9959 6.71006C11.9881 6.75608 11.9693 6.79943 11.9411 6.83628C11.9128 6.87313 11.8761 6.90234 11.8341 6.92132C11.7921 6.94031 11.7462 6.94848 11.7004 6.94511H10.8854C10.745 8.12705 9.75242 9.04307 8.54878 9.04307C7.34514 9.04307 6.35253 8.12705 6.21213 6.94511H5.81244C5.67191 8.14075 4.66834 9.0678 3.45122 9.0678C2.23204 9.0678 1.22715 8.13762 1.0893 6.93907H0.294944C0.250089 6.94125 0.205371 6.9325 0.164525 6.91354C0.123678 6.89458 0.0878886 6.86596 0.0601447 6.83008C0.0324008 6.79419 0.0135082 6.75208 0.00504452 6.70727C-0.00341914 6.66245 -0.00120812 6.61622 0.0114929 6.57245L1.03826 2.27176C1.10962 1.79838 1.55362 0.932203 2.74293 0.932203C2.82178 0.932203 2.89741 0.964038 2.95317 1.0207C3.00893 1.07737 3.04025 1.15422 3.04025 1.23436C3.04025 1.3145 3.00893 1.39135 2.95317 1.44802C2.89741 1.50468 2.82178 1.53652 2.74293 1.53652C1.78554 1.53652 1.63688 2.28788 1.62498 2.37047L0.679485 6.34281H1.09315C1.24493 5.1596 2.24282 4.24579 3.45122 4.24579C4.65896 4.24579 5.65642 5.1586 5.80904 6.34086L6.21533 6.34271C6.36698 5.17325 7.3539 4.27052 8.54878 4.27052C9.74599 4.27052 10.7344 5.17677 10.8831 6.34955V6.33878H11.3178L10.3743 2.37047C10.3604 2.28788 10.2177 1.53652 9.25635 1.53652C9.17749 1.53652 9.10187 1.50468 9.04611 1.44802C8.99035 1.39135 8.95902 1.3145 8.95902 1.23436C8.95902 1.15422 8.99035 1.07737 9.04611 1.0207C9.10187 0.964038 9.17749 0.932203 9.25635 0.932203C10.4457 0.932203 10.8897 1.79838 10.961 2.27176ZM5.22147 6.94511C5.23623 6.85121 5.2439 6.75491 5.2439 6.65679C5.2439 6.5491 5.23466 6.44359 5.21695 6.34105C5.06953 5.48776 4.33507 4.83927 3.45122 4.83927C2.56684 4.83927 1.83204 5.48853 1.68523 6.34257C1.66768 6.44464 1.65854 6.54963 1.65854 6.65679C1.65854 6.75332 1.66596 6.84808 1.68025 6.94054C1.81463 7.80956 2.55635 8.47432 3.45122 8.47432C4.34452 8.47432 5.08521 7.81189 5.22147 6.94511ZM10.2943 6.94511C10.3093 6.85125 10.3171 6.75494 10.3171 6.65679C10.3171 5.66666 9.52538 4.86399 8.54878 4.86399C7.57218 4.86399 6.78049 5.66666 6.78049 6.65679C6.78049 6.75494 6.78827 6.85125 6.80323 6.94511C6.93926 7.79817 7.66899 8.44959 8.54878 8.44959C9.42858 8.44959 10.1583 7.79817 10.2943 6.94511Z" fill="black"/>
</svg>
