<svg xmlns="http://www.w3.org/2000/svg">
  <symbol class="logo__img logo__img--glasses" id="glasses-logo" width="59" height="40" viewBox="0 0 59 40" role="img" aria-label="Логотип приложения (очки)." xmlns="http://www.w3.org/2000/svg"><path fill-rule="evenodd" clip-rule="evenodd" d="M53.8917 6.58616L58.9302 27.7312C59.0013 27.9491 59.0184 28.1815 58.98 28.4078C58.9417 28.6341 58.849 28.8472 58.7102 29.0284C58.5715 29.2096 58.3909 29.3532 58.1845 29.4465C57.978 29.5398 57.7522 29.58 57.5268 29.5635H53.5201C52.8298 35.3747 47.9494 39.8784 42.0315 39.8784C36.1136 39.8784 31.2332 35.3747 30.543 29.5635H28.5778C27.8869 35.442 22.9527 40 16.9685 40C10.9742 40 6.0335 35.4266 5.35571 29.5337H1.45014C1.22961 29.5445 1.00974 29.5014 0.808914 29.4082C0.608085 29.315 0.432119 29.1743 0.295711 28.9979C0.159304 28.8214 0.0664152 28.6144 0.0248022 28.3941C-0.0168108 28.1737 -0.00593994 27.9464 0.0565069 27.7312L5.10477 6.58616C5.45562 4.25872 7.63865 0 13.4861 0C13.8738 0 14.2456 0.156518 14.5197 0.435122C14.7939 0.713727 14.9479 1.0916 14.9479 1.4856C14.9479 1.87961 14.7939 2.25748 14.5197 2.53608C14.2456 2.81468 13.8738 2.9712 13.4861 2.9712C8.7789 2.9712 8.04797 6.6654 7.9895 7.07146L3.3408 26.6022H5.37467C6.12089 20.7847 11.0272 16.2918 16.9685 16.2918C22.9066 16.2918 27.8107 20.7798 28.5611 26.5926L30.5587 26.6017C31.3043 20.8518 36.1567 16.4134 42.0315 16.4134C47.9178 16.4134 52.7776 20.8691 53.5086 26.6353V26.5824H55.6459L51.007 7.07146C50.9387 6.6654 50.237 2.9712 45.5104 2.9712C45.1227 2.9712 44.7509 2.81468 44.4767 2.53608C44.2026 2.25748 44.0485 1.87961 44.0485 1.4856C44.0485 1.0916 44.2026 0.713727 44.4767 0.435122C44.7509 0.156518 45.1227 0 45.5104 0C51.3578 0 53.5408 4.25872 53.8917 6.58616ZM25.6722 29.5635C25.7448 29.1018 25.7825 28.6283 25.7825 28.1459C25.7825 27.6164 25.7371 27.0977 25.65 26.5935C24.9252 22.3982 21.3141 19.2097 16.9685 19.2097C12.6203 19.2097 9.00753 22.402 8.28571 26.601C8.19945 27.1028 8.15447 27.619 8.15447 28.1459C8.15447 28.6205 8.19096 29.0864 8.26125 29.541C8.92191 33.8136 12.5687 37.0821 16.9685 37.0821C21.3605 37.0821 25.0023 33.8251 25.6722 29.5635ZM50.6138 29.5635C50.6874 29.102 50.7256 28.6285 50.7256 28.1459C50.7256 23.2777 46.8331 19.3313 42.0315 19.3313C37.2299 19.3313 33.3374 23.2777 33.3374 28.1459C33.3374 28.6285 33.3756 29.102 33.4492 29.5635C34.118 33.7577 37.7058 36.9605 42.0315 36.9605C46.3572 36.9605 49.945 33.7577 50.6138 29.5635Z"/></symbol>
  <symbol class="logo__img logo__img--text" id="pink-logo" width="74" height="23" viewBox="0 0 74 23" role="img" aria-label="Логотип приложения PINK." xmlns="http://www.w3.org/2000/svg"><path d="M0.00496827 1.54857C0.00487772 1.21254 0.135804 0.889818 0.369742 0.649431C0.60368 0.409043 0.922049 0.27008 1.25676 0.262266H8.39001C13.4469 0.262266 16.7751 2.9645 16.7751 7.39179V7.45162C16.7751 12.2977 12.7415 14.8105 7.97274 14.8105H2.53836V21.611C2.55394 21.7874 2.53277 21.9651 2.47619 22.1329C2.41961 22.3006 2.32887 22.4547 2.20973 22.5854C2.09058 22.716 1.94565 22.8204 1.78416 22.8918C1.62266 22.9631 1.44812 23 1.27166 23C1.0952 23 0.920671 22.9631 0.759173 22.8918C0.597674 22.8204 0.452744 22.716 0.333602 22.5854C0.21446 22.4547 0.123708 22.3006 0.0671295 22.1329C0.0105515 21.9651 -0.0106138 21.7874 0.00496827 21.611V1.54857ZM8.07209 12.5171C11.7778 12.5171 14.2119 10.5228 14.2119 7.53139V7.47156C14.2119 4.26078 11.8175 2.59556 8.25092 2.59556H2.58804V12.4772L8.07209 12.5171Z" />
    <path d="M21.5935 1.38904C21.5779 1.21262 21.5991 1.03487 21.6556 0.867114C21.7122 0.699353 21.803 0.545245 21.9221 0.414596C22.0412 0.283947 22.1862 0.179616 22.3477 0.108238C22.5092 0.0368607 22.6837 0 22.8602 0C23.0366 0 23.2112 0.0368607 23.3727 0.108238C23.5342 0.179616 23.6791 0.283947 23.7982 0.414596C23.9174 0.545245 24.0081 0.699353 24.0647 0.867114C24.1213 1.03487 24.1425 1.21262 24.1269 1.38904V21.611C24.1425 21.7874 24.1213 21.9651 24.0647 22.1329C24.0081 22.3006 23.9174 22.4548 23.7982 22.5854C23.6791 22.7161 23.5342 22.8204 23.3727 22.8918C23.2112 22.9631 23.0366 23 22.8602 23C22.6837 23 22.5092 22.9631 22.3477 22.8918C22.1862 22.8204 22.0412 22.7161 21.9221 22.5854C21.803 22.4548 21.7122 22.3006 21.6556 22.1329C21.5991 21.9651 21.5779 21.7874 21.5935 21.611V1.38904Z" />
    <path d="M30.674 1.41895C30.6816 1.08908 30.8163 0.775007 31.0497 0.542621C31.2831 0.310235 31.597 0.177597 31.9258 0.172531H32.2735C32.5316 0.177833 32.7843 0.248188 33.0082 0.377127C33.2322 0.506065 33.4202 0.689448 33.5551 0.910412L47.1559 18.3104V1.35912C47.1559 1.0312 47.2857 0.7167 47.5168 0.484821C47.7478 0.252942 48.0611 0.122673 48.3879 0.122673C48.7146 0.122673 49.0279 0.252942 49.259 0.484821C49.49 0.7167 49.6198 1.0312 49.6198 1.35912V21.6508C49.6252 21.8051 49.5993 21.9589 49.5435 22.1028C49.4878 22.2467 49.4034 22.3777 49.2956 22.4878C49.1877 22.5979 49.0587 22.6848 48.9163 22.7432C48.7739 22.8016 48.6211 22.8303 48.4673 22.8275H48.3382C48.0744 22.8092 47.8184 22.7294 47.5908 22.5944C47.3631 22.4593 47.17 22.2728 47.0268 22.0497L33.1179 4.24085V21.6508C33.1158 21.9722 32.991 22.2805 32.7692 22.5124C32.5474 22.7442 32.2456 22.882 31.9258 22.8973C31.6008 22.892 31.291 22.7581 31.064 22.5246C30.8369 22.2911 30.711 21.9771 30.7137 21.6508V1.41895H30.674Z" />
    <path d="M55.9384 1.38904C55.9228 1.21262 55.944 1.03487 56.0005 0.867114C56.0571 0.699353 56.1479 0.545245 56.267 0.414596C56.3862 0.283947 56.5311 0.179616 56.6926 0.108238C56.8541 0.0368607 57.0286 0 57.2051 0C57.3815 0 57.5561 0.0368607 57.7176 0.108238C57.8791 0.179616 58.024 0.283947 58.1431 0.414596C58.2623 0.545245 58.353 0.699353 58.4096 0.867114C58.4662 1.03487 58.4874 1.21262 58.4718 1.38904V13.6837L71.2282 0.551443C71.4899 0.279712 71.8455 0.119105 72.2216 0.10273C72.5468 0.115453 72.8548 0.252812 73.0821 0.486531C73.3094 0.72025 73.4388 1.03254 73.4436 1.35912C73.4366 1.52896 73.3961 1.69572 73.3245 1.84975C73.2529 2.00379 73.1516 2.14205 73.0264 2.25655L65.0785 10.1539L73.6523 20.6836C73.8764 20.9441 73.9998 21.2768 74 21.6209C73.9961 21.7933 73.9583 21.9633 73.8887 22.121C73.8191 22.2786 73.719 22.4209 73.5943 22.5395C73.4696 22.6582 73.3228 22.7509 73.1622 22.8123C73.0016 22.8737 72.8305 22.9026 72.6588 22.8973C72.4588 22.8891 72.2639 22.8322 72.0908 22.7314C71.9177 22.6306 71.7716 22.4891 71.6653 22.3189L63.3001 11.859L58.4718 16.7051V21.591C58.4718 21.7573 58.4391 21.922 58.3757 22.0756C58.3123 22.2293 58.2194 22.3689 58.1022 22.4865C57.9851 22.6041 57.846 22.6973 57.6929 22.761C57.5398 22.8246 57.3757 22.8574 57.21 22.8574C57.0443 22.8574 56.8803 22.8246 56.7272 22.761C56.5741 22.6973 56.435 22.6041 56.3179 22.4865C56.2007 22.3689 56.1078 22.2293 56.0443 22.0756C55.9809 21.922 55.9483 21.7573 55.9483 21.591V1.38904H55.9384Z" />
  </symbol>
  <symbol class="logo__img logo__img--glasses-star" id="glasses-logo-star" width="61" height="40" viewBox="0 0 61 40" role="img" aria-label="Логотип приложения (очки) со звездочками." xmlns="http://www.w3.org/2000/svg">
    <path d="M43.2871 19.0667C43.5382 19.0667 43.7793 19.0667 44.0203 19.0667C43.802 18.6988 43.4898 18.3933 43.1146 18.1803C42.7394 17.9673 42.3142 17.8542 41.881 17.8522C41.4628 17.8519 41.0552 17.7233 40.7149 17.4843C40.3746 17.2454 40.1186 16.908 39.9827 16.5192C39.259 16.7245 38.5562 16.9955 37.8835 17.3289H38.0744C38.6071 17.3289 39.1181 17.5369 39.4948 17.9073C39.8715 18.2776 40.0832 18.7799 40.0832 19.3037C40.0881 19.399 40.0881 19.4946 40.0832 19.59C41.1091 19.2225 42.1954 19.0451 43.2871 19.0667V19.0667Z" />
    <path d="M60.7332 27.6472L55.5406 6.56621C55.179 4.24582 52.9291 0 46.9028 0C46.5033 0 46.1201 0.156044 45.8375 0.433804C45.555 0.711564 45.3962 1.08829 45.3962 1.4811C45.3962 1.87391 45.555 2.25063 45.8375 2.52839C46.1201 2.80615 46.5033 2.9622 46.9028 2.9622C51.7741 2.9622 52.4973 6.6452 52.5676 7.05003L57.3485 26.5018H55.2493C55.0321 24.805 54.4439 23.1744 53.525 21.7222C52.6061 20.2701 51.3783 19.0307 49.926 18.0892C49.4712 18.2774 49.0829 18.5932 48.8096 18.9971C48.5363 19.401 48.3901 19.8751 48.3893 20.3602C48.3948 20.4457 48.3948 20.5314 48.3893 20.6169C49.6107 21.4404 50.6131 22.5401 51.3122 23.8236C52.0113 25.1072 52.3867 26.537 52.4069 27.9928C52.4008 28.4894 52.3538 28.9847 52.2663 29.4739C51.9374 31.5714 50.8559 33.484 49.2173 34.8657C47.5786 36.2474 45.4911 37.007 43.3322 37.007C41.1734 37.007 39.0859 36.2474 37.4472 34.8657C35.8086 33.484 34.727 31.5714 34.3982 29.4739C34.3107 28.9847 34.2637 28.4894 34.2576 27.9928C34.2733 26.6229 34.5993 25.2737 35.2118 24.0432C34.7037 24.0081 34.2282 23.7847 33.8814 23.4181C33.5346 23.0515 33.3424 22.569 33.3436 22.0684C33.3453 21.889 33.277 21.7159 33.1528 21.5846C32.181 23.0752 31.5662 24.7633 31.3549 26.5215H29.4868C29.1663 23.6174 27.7658 20.9319 25.5542 18.9809C23.3427 17.0298 20.4759 15.9507 17.5044 15.9507C14.5329 15.9507 11.6662 17.0298 9.45463 18.9809C7.24307 20.9319 5.84259 23.6174 5.5221 26.5215H3.44302L8.23394 7.05003C8.29421 6.6452 9.0475 2.9622 13.8987 2.9622C14.2983 2.9622 14.6815 2.80615 14.964 2.52839C15.2465 2.25063 15.4053 1.87391 15.4053 1.4811C15.4053 1.08829 15.2465 0.711564 14.964 0.433804C14.6815 0.156044 14.2983 0 13.8987 0C7.87236 0 5.62254 4.24582 5.26096 6.56621L0.0582358 27.6472C-0.00612168 27.8617 -0.0173251 28.0883 0.0255611 28.308C0.0684473 28.5277 0.164178 28.7341 0.304759 28.91C0.44534 29.0859 0.62669 29.2262 0.833664 29.3191C1.04064 29.4121 1.26723 29.455 1.49451 29.4442H5.51206C5.59378 30.055 5.72135 30.659 5.89372 31.2512C5.95717 31.1429 5.99172 31.0206 5.99416 30.8957C5.99416 30.372 6.2058 29.8697 6.58252 29.4993C6.95923 29.129 7.47017 28.9209 8.00293 28.9209C8.16603 28.9231 8.32812 28.9463 8.48504 28.99C8.44128 28.6461 8.41781 28.2999 8.41473 27.9533C8.41742 27.4569 8.46109 26.9616 8.5453 26.4722C8.86708 24.3679 9.94626 22.4469 11.5867 21.0586C13.2271 19.6702 15.3198 18.9066 17.4843 18.9066C19.6489 18.9066 21.7416 19.6702 23.382 21.0586C25.0224 22.4469 26.1016 24.3679 26.4234 26.4722C26.5076 26.9616 26.5513 27.4569 26.554 27.9533C26.5382 30.3054 25.5807 32.5567 23.8889 34.2199C22.1971 35.8831 19.907 36.8243 17.5145 36.8399C15.5563 36.8663 13.6424 36.2668 12.0607 35.1317C11.6982 35.4411 11.235 35.6128 10.755 35.6155C10.5569 35.6181 10.3679 35.6973 10.2288 35.8359C10.0897 35.9745 10.0117 36.1613 10.0117 36.356C10.009 36.6321 9.94739 36.9046 9.83092 37.1558C11.9797 38.9066 14.6835 39.8636 17.4743 39.8613C20.4223 39.8738 23.2728 38.8236 25.4864 36.9095C27.7 34.9953 29.1232 32.35 29.4868 29.4739H31.3147C31.6456 32.3691 33.0499 35.0431 35.2593 36.9848C37.4688 38.9266 40.3285 40 43.2921 40C46.2557 40 49.1154 38.9266 51.3248 36.9848C53.5343 35.0431 54.9385 32.3691 55.2694 29.4739H59.2869C59.5191 29.4904 59.7519 29.4503 59.9647 29.3573C60.1774 29.2642 60.3635 29.121 60.5065 28.9404C60.6495 28.7598 60.7451 28.5473 60.7846 28.3217C60.8241 28.0961 60.8065 27.8645 60.7332 27.6472V27.6472Z"/>
    <path d="M50.9203 15.9169C50.3273 15.9182 49.7398 15.8045 49.1915 15.5822C48.6432 15.36 48.1448 15.0337 47.725 14.6219C47.3052 14.21 46.9721 13.7209 46.7448 13.1823C46.5176 12.6438 46.4006 12.0665 46.4006 11.4835C46.3979 12.6602 45.9206 13.7878 45.0733 14.619C44.2259 15.4501 43.0778 15.9169 41.8809 15.9169C43.0788 15.9195 44.2268 16.3885 45.0739 17.2212C45.9209 18.0539 46.3979 19.1825 46.4006 20.3602C46.4006 19.1817 46.8768 18.0516 47.7244 17.2183C48.572 16.385 49.7216 15.9169 50.9203 15.9169V15.9169Z" fill="#D22856"/>
    <path d="M38.0744 19.3826C37.3418 19.3826 36.6393 19.0966 36.1213 18.5873C35.6033 18.0781 35.3123 17.3875 35.3123 16.6673C35.3123 17.3857 35.0227 18.0749 34.5069 18.5839C33.9911 19.0928 33.2911 19.38 32.5603 19.3826C33.2902 19.3826 33.9902 19.6677 34.5063 20.1751C35.0224 20.6824 35.3123 21.3706 35.3123 22.0881C35.315 21.3697 35.6072 20.6816 36.1249 20.1745C36.6426 19.6674 37.3436 19.3826 38.0744 19.3826V19.3826Z" fill="#D22856"/>
    <path d="M10.785 33.6407C10.056 33.6355 9.35856 33.3471 8.84491 32.8384C8.33126 32.3298 8.04302 31.6421 8.04303 30.9253C8.04304 31.6438 7.75342 32.333 7.2376 32.8419C6.72178 33.3508 6.02182 33.6381 5.29102 33.6407C6.02182 33.6433 6.72178 33.9305 7.2376 34.4395C7.75342 34.9484 8.04304 35.6376 8.04303 36.356C8.04302 35.6393 8.33126 34.9516 8.84491 34.4429C9.35856 33.9343 10.056 33.6459 10.785 33.6407V33.6407Z" fill="#D22856"/>
  </symbol>
  <symbol class="logo__img logo__img--text-star" id="pink-logo-text-star" width="75" height="34" viewBox="0 0 75 34"  role="img" aria-label="Логотип приложения PINK со звездочками." xmlns="http://www.w3.org/2000/svg">
    <path d="M0.193255 12.4249C0.193164 12.0921 0.325526 11.7726 0.56203 11.5345C0.798535 11.2965 1.1204 11.1589 1.45878 11.1511H8.67027C13.7826 11.1511 17.1473 13.827 17.1473 18.211V18.2703C17.1473 23.069 13.0695 25.5573 8.24843 25.5573H2.75444V32.2913C2.77019 32.466 2.74878 32.6421 2.69159 32.8082C2.63439 32.9743 2.54265 33.1269 2.4222 33.2563C2.30175 33.3856 2.15523 33.489 1.99196 33.5596C1.82869 33.6303 1.65224 33.6668 1.47384 33.6668C1.29544 33.6668 1.119 33.6303 0.955733 33.5596C0.792463 33.489 0.645943 33.3856 0.525494 33.2563C0.405045 33.1269 0.313297 32.9743 0.256098 32.8082C0.1989 32.6421 0.177502 32.466 0.193255 32.2913V12.4249ZM8.34887 23.2863C12.0952 23.2863 14.556 21.3115 14.556 18.3493V18.29C14.556 15.1106 12.1354 13.4616 8.52966 13.4616H2.80466V23.2468L8.34887 23.2863Z" />
    <path d="M22.0187 12.2669C22.0029 12.0922 22.0243 11.9162 22.0815 11.7501C22.1387 11.5839 22.2305 11.4313 22.3509 11.302C22.4714 11.1726 22.6179 11.0693 22.7812 10.9986C22.9444 10.9279 23.1209 10.8914 23.2993 10.8914C23.4777 10.8914 23.6541 10.9279 23.8174 10.9986C23.9807 11.0693 24.1272 11.1726 24.2476 11.302C24.3681 11.4313 24.4598 11.5839 24.517 11.7501C24.5742 11.9162 24.5956 12.0922 24.5799 12.2669V32.2913C24.5956 32.466 24.5742 32.642 24.517 32.8082C24.4598 32.9743 24.3681 33.1269 24.2476 33.2563C24.1272 33.3856 23.9807 33.489 23.8174 33.5596C23.6541 33.6303 23.4777 33.6668 23.2993 33.6668C23.1209 33.6668 22.9444 33.6303 22.7812 33.5596C22.6179 33.489 22.4714 33.3856 22.3509 33.2563C22.2305 33.1269 22.1387 32.9743 22.0815 32.8082C22.0243 32.642 22.0029 32.466 22.0187 32.2913V12.2669Z" />
    <path d="M31.1987 12.2965C31.2065 11.9699 31.3426 11.6588 31.5786 11.4287C31.8145 11.1986 32.1319 11.0673 32.4643 11.0623H32.8158C33.0768 11.0675 33.3322 11.1372 33.5586 11.2649C33.785 11.3925 33.9751 11.5741 34.1115 11.7929L47.8615 29.0231V12.2373C47.8615 11.9125 47.9927 11.6011 48.2263 11.3715C48.4598 11.1419 48.7766 11.0129 49.1069 11.0129C49.4373 11.0129 49.754 11.1419 49.9876 11.3715C50.2212 11.6011 50.3524 11.9125 50.3524 12.2373V32.3308C50.3579 32.4836 50.3316 32.6359 50.2753 32.7784C50.2189 32.9209 50.1336 33.0506 50.0246 33.1596C49.9156 33.2687 49.7851 33.3547 49.6412 33.4125C49.4972 33.4704 49.3428 33.4987 49.1873 33.496H49.0567C48.79 33.4779 48.5313 33.3989 48.3011 33.2652C48.0709 33.1314 47.8757 32.9468 47.7309 32.7258L33.6695 15.0908V32.3308C33.6673 32.6491 33.5411 32.9544 33.317 33.184C33.0928 33.4135 32.7876 33.5499 32.4643 33.5651C32.1357 33.5599 31.8225 33.4272 31.593 33.1961C31.3635 32.9649 31.2362 32.6539 31.2389 32.3308V12.2965H31.1987Z" />
    <path d="M56.7401 12.2669C56.7244 12.0922 56.7458 11.9162 56.803 11.7501C56.8602 11.5839 56.9519 11.4313 57.0724 11.302C57.1928 11.1726 57.3393 11.0693 57.5026 10.9986C57.6659 10.9279 57.8423 10.8914 58.0207 10.8914C58.1991 10.8914 58.3756 10.9279 58.5388 10.9986C58.7021 11.0693 58.8486 11.1726 58.9691 11.302C59.0895 11.4313 59.1813 11.5839 59.2385 11.7501C59.2957 11.9162 59.3171 12.0922 59.3013 12.2669V24.4415L72.1976 11.4375C72.4622 11.1684 72.8217 11.0094 73.202 10.9931C73.5308 11.0057 73.8421 11.1418 74.0719 11.3732C74.3017 11.6046 74.4325 11.9139 74.4374 12.2373C74.4303 12.4054 74.3894 12.5706 74.317 12.7231C74.2446 12.8756 74.1421 13.0125 74.0156 13.1259L65.9805 20.9461L74.6483 31.3731C74.8749 31.631 74.9996 31.9604 74.9999 32.3012C74.996 32.472 74.9577 32.6402 74.8873 32.7964C74.817 32.9525 74.7158 33.0934 74.5898 33.2109C74.4637 33.3284 74.3152 33.4202 74.1529 33.481C73.9906 33.5418 73.8176 33.5703 73.644 33.5651C73.4418 33.557 73.2447 33.5006 73.0697 33.4008C72.8947 33.3011 72.7471 33.1609 72.6396 32.9924L64.1826 22.6346L59.3013 27.4333V32.2716C59.3013 32.4363 59.2683 32.5993 59.2042 32.7515C59.1401 32.9036 59.0462 33.0419 58.9277 33.1583C58.8093 33.2747 58.6686 33.3671 58.5139 33.4301C58.3591 33.4932 58.1933 33.5256 58.0257 33.5256C57.8582 33.5256 57.6924 33.4932 57.5376 33.4301C57.3828 33.3671 57.2422 33.2747 57.1238 33.1583C57.0053 33.0419 56.9114 32.9036 56.8473 32.7515C56.7832 32.5993 56.7502 32.4363 56.7502 32.2716V12.2669H56.7401Z" />
    <path d="M26.94 3.74563C25.9748 3.74563 25.0489 3.36936 24.3655 2.69932C23.682 2.02927 23.2967 1.12014 23.2941 0.171246C23.2941 1.11923 22.911 2.02839 22.2292 2.69872C21.5473 3.36905 20.6225 3.74563 19.6582 3.74563C20.6234 3.74825 21.5482 4.12703 22.2298 4.79892C22.9113 5.47082 23.2941 6.38099 23.2941 7.32989C23.2967 6.38009 23.6817 5.46993 24.3649 4.79831C25.048 4.1267 25.9739 3.74824 26.94 3.74563V3.74563Z" fill="#D22856"/>
  </symbol>
  <symbol class="tariffs-table__icon" id="included" width="31"  height="21" viewBox="0 0 31 21" fill="none" role="img" aria-label="Данная функция входит в тариф." xmlns="http://www.w3.org/2000/svg">
    <path d="M30.5559 0.429509C30.4134 0.293412 30.2439 0.185389 30.0571 0.111671C29.8703 0.0379536 29.67 0 29.4676 0C29.2653 0 29.065 0.0379536 28.8782 0.111671C28.6914 0.185389 28.5219 0.293412 28.3794 0.429509L10.3744 17.4958L2.5777 10.1097C2.28714 9.85325 1.90283 9.71362 1.50573 9.72025C1.10864 9.72689 0.72977 9.87928 0.448939 10.1453C0.168108 10.4114 0.00724504 10.7703 0.0002388 11.1464C-0.00676744 11.5226 0.140631 11.8867 0.41138 12.1619L9.29124 20.5741C9.4331 20.7094 9.60187 20.8167 9.7878 20.8898C9.97372 20.9629 10.1731 21.0004 10.3744 21C10.7806 20.9986 11.1698 20.8456 11.4576 20.5741L30.5559 2.48172C30.8405 2.20822 31 1.83963 31 1.45561C31 1.0716 30.8405 0.703003 30.5559 0.429509Z" fill="#3DC644"/>
  </symbol>
  <symbol class="tariffs-table__icon" id="not-included" width="27" height="27" viewBox="0 0 27 27" fill="none" role="img" aria-label="Данная функция не входит в тариф." xmlns="http://www.w3.org/2000/svg">
    <path d="M15.6444 13.5065L26.5531 2.58654C26.6947 2.44667 26.8071 2.28009 26.8838 2.09645C26.9605 1.91281 27 1.71577 27 1.51674C27 1.31772 26.9605 1.12068 26.8838 0.937041C26.8071 0.753403 26.6947 0.58682 26.5531 0.446952C26.268 0.165899 25.8837 0.00834432 25.4834 0.00834432C25.0831 0.00834432 24.6988 0.165899 24.4137 0.446952L13.505 11.3669L2.58626 0.446952C2.44641 0.305366 2.27984 0.192953 2.09622 0.11623C1.9126 0.0395068 1.71558 0 1.51658 0C1.31758 0 1.12056 0.0395068 0.936941 0.11623C0.753322 0.192953 0.586757 0.305366 0.446904 0.446952C0.165881 0.73209 0.00834343 1.11638 0.00834343 1.51674C0.00834343 1.91711 0.165881 2.3014 0.446904 2.58654L11.3657 13.5065L0.446904 24.4164C0.305333 24.5562 0.192932 24.7228 0.116217 24.9064C0.0395025 25.0901 0 25.2871 0 25.4861C0 25.6852 0.0395025 25.8822 0.116217 26.0658C0.192932 26.2495 0.305333 26.4161 0.446904 26.5559C0.730723 26.8394 1.11545 26.9987 1.51658 26.9987C1.91771 26.9987 2.30244 26.8394 2.58626 26.5559L13.505 15.6461L24.4137 26.5559C24.698 26.839 25.0823 26.9985 25.4834 27C25.7826 26.9997 26.075 26.9108 26.3237 26.7444C26.5724 26.5781 26.7662 26.3417 26.8806 26.0653C26.9951 25.7888 27.0251 25.4847 26.9668 25.1912C26.9085 24.8977 26.7645 24.6281 26.5531 24.4164L15.6444 13.5065Z" fill="#F25B26"/>
  </symbol>
  <symbol class="social__icon" id="youtube" role="img" aria-label="Youtube." width="15" height="13" viewBox="0 0 15 13" fill="none" xmlns="http://www.w3.org/2000/svg"><path d="M1.83 12.8a1.25 1.25 0 0 1-1.28.04 1.1 1.1 0 0 1-.44-.46.97.97 0 0 1-.1-.6V1.22c-.03-.2 0-.41.1-.6C.2.42.35.27.55.16a1.26 1.26 0 0 1 1.28.03l12.4 5.5c1.03.45 1.03 1.17 0 1.62l-12.4 5.5Z" fill="#D22856"/></symbol>
  <symbol class="social__icon" id="tg" role="img" aria-label="Telegramm." width="16" height="14" viewBox="0 0 16 14" fill="none" xmlns="http://www.w3.org/2000/svg"><path d="m15.7 1.2-2.37 11.21c-.18.8-.65.99-1.31.62l-3.63-2.67-1.74 1.68c-.2.2-.36.35-.73.35l.26-3.69 6.71-6.06c.3-.26-.06-.4-.45-.14l-8.3 5.22L.57 6.6c-.78-.24-.8-.77.16-1.15L14.7.07c.65-.24 1.21.14 1 1.13Z" fill="#D22856"/></symbol>
  <symbol class="social__icon" id="vk" role="img" aria-label="VKontakte." width="18" height="18" viewBox="0 0 18 18" fill="none" xmlns="http://www.w3.org/2000/svg"><g clip-path="url(#a)"><path fill-rule="evenodd" clip-rule="evenodd" d="M17.59 4.71c.12-.4 0-.71-.6-.71h-1.97c-.5 0-.73.26-.85.55 0 0-1 2.4-2.42 3.95-.46.45-.67.6-.92.6-.13 0-.32-.15-.32-.56V4.71c0-.5-.13-.71-.55-.71h-3.1c-.3 0-.5.23-.5.44 0 .47.71.58.78 1.89v2.85c0 .62-.11.74-.36.74-.67 0-2.3-2.41-3.26-5.17-.18-.53-.37-.75-.87-.75H.68C.1 4 0 4.26 0 4.55c0 .5.67 3.05 3.1 6.41 1.64 2.3 3.93 3.54 6.01 3.54 1.26 0 1.41-.28 1.41-.75V12c0-.55.12-.66.52-.66.29 0 .79.14 1.96 1.25 1.33 1.31 1.55 1.9 2.3 1.9h1.97c.57 0 .85-.28.68-.82a8.36 8.36 0 0 0-1.66-2.27c-.46-.53-1.14-1.1-1.35-1.4-.3-.36-.21-.52 0-.85 0 0 2.4-3.32 2.65-4.45Z" fill="#D22856"/></g><defs><clipPath id="a"><path fill="#fff" d="M0 0h18v18H0z"/></clipPath></defs></symbol>
  <symbol class="button post-form__button post-form__button--crop" id="crop" viewBox="0 0 44 44" xmlns="http://www.w3.org/2000/svg"><path d="M32 28h4V12a4 4 0 0 0-4-4H16v4h16v16Zm-20 4V0H8v8H0v4h8v20a4 4 0 0 0 4 4h20v8h4v-8h8v-4H12Z"/></symbol>
  <symbol class="button post-form__button post-form__button--fill" id="fill" viewBox="0 0 48 43" xmlns="http://www.w3.org/2000/svg"><g ><path d="M33.12 17.88 15.24 0l-2.83 2.83 4.76 4.76L6.88 17.88a3 3 0 0 0 0 4.24l11 11a3 3 0 0 0 4.24 0l11-11a3 3 0 0 0 0-4.24ZM10.41 20 20 10.42 29.59 20H10.41ZM38 23s-4 4.33-4 7a4 4 0 1 0 8 0c0-2.67-4-7-4-7ZM48 40H0v3h48v-3Z"/></g></symbol>
  <symbol class="button post-form__button post-form__button--contrast" id="contrast" viewBox="0 0 32 32" xmlns="http://www.w3.org/2000/svg"><g ><path d="M16 4a12 12 0 1 1 0 24 12 12 0 0 1 0-24Zm0-4a16 16 0 1 0 0 32 16 16 0 0 0 0-32Z"/><path d="M16 24.29a8.52 8.52 0 0 0 0-17"/></g></symbol>
  <symbol class="button reviews__button reviews__button--previous" id="left-arrow" width="22" height="41" viewBox="0 0 22 41" fill="none" xmlns="http://www.w3.org/2000/svg"><path d="M2.0413 20.5035L21.7483 1.4144C21.8281 1.3379 21.8914 1.24683 21.9346 1.14646C21.9778 1.04608 22 0.938398 22 0.829635C22 0.720871 21.9778 0.613187 21.9346 0.512814C21.8914 0.41244 21.8281 0.321369 21.7483 0.24487C21.6686 0.167255 21.5738 0.105671 21.4694 0.0636507C21.365 0.0216304 21.2532 0 21.1401 0C21.0271 0 20.9153 0.0216304 20.8109 0.0636507C20.7065 0.105671 20.6117 0.167255 20.532 0.24487L0.252535 19.9088C0.17249 19.9862 0.108978 20.0781 0.0656429 20.1793C0.0223074 20.2805 0 20.389 0 20.4985C0 20.6081 0.0223074 20.7166 0.0656429 20.8178C0.108978 20.919 0.17249 21.0109 0.252535 21.0883L20.532 40.7621C20.6967 40.9157 20.9167 41.001 21.1453 41C21.3139 40.9985 21.4783 40.9488 21.6181 40.8572C21.7578 40.7656 21.8666 40.6362 21.9309 40.485C21.9952 40.3339 22.0122 40.1677 21.9797 40.0072C21.9473 39.8467 21.8668 39.6991 21.7483 39.5827L2.0413 20.5035Z" fill="#283645"/></symbol>
  <symbol class="button reviews__button reviews__button--next" id="right-arrow" width="22" height="41" fill="none" xmlns="http://www.w3.org/2000/svg"><path d="M19.959 20.497.252 39.585A.822.822 0 0 0 0 40.17a.801.801 0 0 0 .252.585A.86.86 0 0 0 .86 41a.88.88 0 0 0 .608-.245l20.28-19.664a.834.834 0 0 0 .252-.59.811.811 0 0 0-.253-.59L1.468.239A.894.894 0 0 0 .855 0a.878.878 0 0 0-.473.143.838.838 0 0 0-.313.372.81.81 0 0 0 .183.902l19.707 19.08Z" fill="#283645"/></symbol>
</svg>
